<svg width="24" height="24" viewBox="0 0 24 24" fill="none" xmlns="http://www.w3.org/2000/svg">
<path d="M23.8903 7.96381C23.8904 6.3596 23.4059 4.79276 22.5005 3.46852C21.595 2.14429 20.3106 1.1244 18.8157 0.542454C17.3208 -0.0394964 15.6849 -0.156369 14.1224 0.207136C12.5599 0.570641 11.1436 1.39758 10.0591 2.57963H0V23.8101H21.2385V13.888C22.0721 13.1425 22.7391 12.2295 23.196 11.2087C23.653 10.1879 23.8895 9.08224 23.8903 7.96381ZM19.8038 7.96381C19.8054 8.73251 19.5789 9.48444 19.153 10.1244C18.727 10.7643 18.1209 11.2636 17.4111 11.5588C16.7013 11.8541 15.92 11.9322 15.1658 11.7832C14.4117 11.6342 13.7187 11.2648 13.1745 10.7218C12.6304 10.1788 12.2596 9.48662 12.1091 8.73275C11.9585 7.97897 12.035 7.19737 12.3288 6.48703C12.6226 5.77666 13.1205 5.16943 13.7595 4.74219C14.3986 4.31494 15.1501 4.08689 15.9188 4.08688C16.9477 4.08688 17.9347 4.49509 18.663 5.22192C19.3914 5.94875 19.8017 6.93485 19.8038 7.96381ZM17.152 19.7236H4.0865V6.66613H8.06819C7.9913 7.09453 7.95084 7.52865 7.94729 7.96381C7.94947 10.0773 8.78998 12.1037 10.2845 13.5982C11.7789 15.0926 13.8052 15.9332 15.9188 15.9353C16.332 15.9331 16.7444 15.8981 17.152 15.8305V19.7236Z" fill="white"/>
</svg>
