<svg width="40" height="40" viewBox="0 0 40 40" fill="none" xmlns="http://www.w3.org/2000/svg">
<path d="M20.0002 33.3333C27.364 33.3333 33.3335 27.3638 33.3335 20C33.3335 12.6362 27.364 6.66666 20.0002 6.66666C12.6364 6.66666 6.66683 12.6362 6.66683 20C6.66683 27.3638 12.6364 33.3333 20.0002 33.3333ZM20.0002 36.6667C10.7954 36.6667 3.3335 29.2047 3.3335 20C3.3335 10.7952 10.7954 3.33333 20.0002 3.33333C29.2048 3.33333 36.6668 10.7952 36.6668 20C36.6668 29.2047 29.2048 36.6667 20.0002 36.6667ZM20.0002 26.6667C23.682 26.6667 26.6668 23.6818 26.6668 20C26.6668 16.3181 23.682 13.3333 20.0002 13.3333C16.3183 13.3333 13.3335 16.3181 13.3335 20C13.3335 23.6818 16.3183 26.6667 20.0002 26.6667ZM20.0002 30C14.4773 30 10.0002 25.5228 10.0002 20C10.0002 14.4771 14.4773 10 20.0002 10C25.523 10 30.0002 14.4771 30.0002 20C30.0002 25.5228 25.523 30 20.0002 30ZM20.0002 23.3333C18.1592 23.3333 16.6668 21.841 16.6668 20C16.6668 18.159 18.1592 16.6667 20.0002 16.6667C21.8412 16.6667 23.3335 18.159 23.3335 20C23.3335 21.841 21.8412 23.3333 20.0002 23.3333Z" fill="#85ACFF"/>
</svg>
