<svg width="20" height="20" viewBox="0 0 20 20" fill="none" xmlns="http://www.w3.org/2000/svg">
<path d="M4.99992 3.33335H3.33325V1.66669H16.6666V3.33335H14.9999V5.00002C14.9999 6.34621 14.3198 7.42892 13.4633 8.31391C12.8776 8.91919 12.1649 9.47669 11.4423 10C12.1649 10.5234 12.8776 11.0809 13.4633 11.6861C14.3198 12.5711 14.9999 13.6539 14.9999 15V16.6667H16.6666V18.3334H3.33325V16.6667H4.99992V15C4.99992 13.6539 5.68005 12.5711 6.5365 11.6861C7.12227 11.0809 7.83494 10.5234 8.5575 10C7.83494 9.47669 7.12227 8.91919 6.5365 8.31391C5.68005 7.42892 4.99992 6.34621 4.99992 5.00002V3.33335ZM6.66659 3.33335V5.00002C6.66659 5.57097 6.88347 6.11251 7.30934 6.66669H12.6905C13.1163 6.11251 13.3333 5.57097 13.3333 5.00002V3.33335H6.66659ZM9.99992 11.0183C9.12892 11.6335 8.33992 12.2192 7.73417 12.8452C7.57499 13.0097 7.43331 13.172 7.30934 13.3334H12.6905C12.5665 13.172 12.4248 13.0097 12.2657 12.8452C11.6599 12.2192 10.8709 11.6335 9.99992 11.0183Z" fill="#BB6FFF"/>
</svg>
